<svg xmlns="http://www.w3.org/2000/svg" xmlns:xlink="http://www.w3.org/1999/xlink" version="1.1" id="Layer_1" x="0px" y="0px" viewBox="0 0 299.913 299.913" style="enable-background:new 0 0 299.913 299.913;" xml:space="preserve">
<g>
	<g>
		<g>
			<path d="M262.958,207.18H229.66c-14.533-42.804-30.664-79.466-35.404-89.95c-1.095-2.432-3.54-4.049-6.227-3.834l-1.48,0.033     c-15.596,0-41.734-10.041-56.783-26.269c-7.426-8.026-10.895-16.189-10.276-24.28c0.782-10.432-2.367-20.303-8.632-27.065     c-4.962-5.353-11.553-8.28-18.569-8.28c-6.018,0-15.368,2.184-25.8,12.61C58.354,48.281,9.226,96.124,8.73,96.6     c-1.265,1.232-1.969,2.895-1.976,4.649c-0.007,1.754,0.691,3.436,1.936,4.662l166.28,164.584     c1.206,1.206,2.862,1.884,4.584,1.884H293.4c3.606,0,6.52-2.914,6.513-6.52v-21.281     C299.913,222.215,285.08,207.18,262.958,207.18z M224.966,220.22h37.999c9.906,0,17.148,4.003,20.932,11.114l-95.807-0.017     l-21.717-21.794l42.703-21.352c3.241,8.782,6.523,18.049,9.703,27.589C219.665,218.427,222.149,220.22,224.966,220.22z      M196.858,156.62l-59.49,23.796l-9.093-9.125l65.634-21.878C194.859,151.713,195.844,154.117,196.858,156.62z M201.686,168.744     c0.911,2.328,1.835,4.711,2.769,7.148l-47.787,23.893l-9.287-9.32L201.686,168.744z M75.723,49.363     c5.757-5.751,11.488-8.789,16.58-8.789c4.284,0,7.257,2.23,8.991,4.101c3.762,4.049,5.705,10.497,5.196,17.219     c-0.887,11.69,3.853,23.492,13.718,34.132c16.9,18.236,45.047,29.431,63.87,30.377c1.264,2.853,2.882,6.554,4.761,10.949     l-70.851,23.617L40.827,83.535C54.985,69.722,71.242,53.844,75.723,49.363z M286.88,259.34H182.227L22.598,101.314     c2.344-2.287,5.412-5.279,8.894-8.676l151.185,151.718l104.195,0.018c0,0.069,0.008,0.134,0.008,0.204V259.34z" style="fill: rgb(0, 0, 0);"></path>
			<path d="M6.52,181.1H32.6c3.599,0,6.52-2.914,6.52-6.52c0-3.606-2.914-6.52-6.52-6.52H6.52c-3.606,0-6.52,2.914-6.52,6.52     C0,178.185,2.914,181.1,6.52,181.1z" style="fill: rgb(0, 0, 0);"></path>
			<path d="M6.52,207.18h52.16c3.599,0,6.52-2.914,6.52-6.52c0-3.606-2.914-6.52-6.52-6.52H6.52c-3.606,0-6.52,2.914-6.52,6.52     C0,204.265,2.914,207.18,6.52,207.18z" style="fill: rgb(0, 0, 0);"></path>
			<path d="M84.76,220.22H6.52c-3.606,0-6.52,2.914-6.52,6.52s2.914,6.52,6.52,6.52h78.24c3.599,0,6.52-2.914,6.52-6.52     S88.366,220.22,84.76,220.22z" style="fill: rgb(0, 0, 0);"></path>
		</g>
	</g>
</g>
<g>
</g>
<g>
</g>
<g>
</g>
<g>
</g>
<g>
</g>
<g>
</g>
<g>
</g>
<g>
</g>
<g>
</g>
<g>
</g>
<g>
</g>
<g>
</g>
<g>
</g>
<g>
</g>
<g>
</g>
</svg>